<?xml version="1.0" encoding="UTF-8"?>
<svg id="Layer_1" data-name="Layer 1" xmlns="http://www.w3.org/2000/svg" viewBox="0 0 568.9 110.51">
  <polygon points="88.39 71.83 86.89 92.37 86.14 92.37 84.19 71.83 75.05 .6 54.8 .6 71.45 109.91 101.14 109.91 117.93 .6 97.84 .6 88.39 71.83"/>
  <polygon points="145.22 62.38 163.07 62.38 163.07 45.73 145.22 45.73 145.22 17.69 171.76 17.69 171.76 .6 124.98 .6 124.98 109.91 172.66 109.91 172.66 92.67 145.22 92.67 145.22 62.38"/>
  <path d="M231.37,56.38c2.25-2.7,3.97-5.97,5.17-9.82,1.2-3.85,1.8-8.07,1.8-12.67,0-6.8-1.1-12.67-3.3-17.62-2.2-4.95-5.42-8.8-9.67-11.55-4.25-2.75-9.52-4.12-15.82-4.12h-29.39v109.31h20.24v-42.44h4.95l12.45,42.44h21.74l-15.93-47.63c3.11-1.47,5.7-3.43,7.75-5.9ZM216.9,37.64c0,4.1-.93,7.37-2.77,9.82-1.85,2.45-4.62,3.67-8.32,3.67h-5.4V17.54h5.4c3.4,0,6.1,1.05,8.1,3.15,2,2.1,3,5.3,3,9.6v7.35Z"/>
  <polygon points="246.59 109.91 266.83 109.91 266.83 63.13 288.42 63.13 288.42 46.48 266.83 46.48 266.83 17.69 292.02 17.69 292.02 .6 246.59 .6 246.59 109.91"/>
  <path d="M350.2,8.55c-2.7-3-5.95-5.27-9.75-6.82-3.8-1.55-8-2.32-12.6-2.32-6.2,0-11.6,1.38-16.19,4.12-4.6,2.75-8.17,6.7-10.72,11.85-2.55,5.15-3.82,11.37-3.82,18.67v42.44c0,5.5.7,10.37,2.1,14.62,1.4,4.25,3.45,7.87,6.15,10.87s5.95,5.27,9.75,6.82c3.8,1.55,8.04,2.32,12.75,2.32,6.2,0,11.6-1.37,16.19-4.12,4.6-2.75,8.17-6.7,10.72-11.85,2.55-5.15,3.82-11.37,3.82-18.67v-42.44c0-5.5-.73-10.37-2.17-14.62-1.45-4.25-3.52-7.87-6.22-10.87ZM337.9,83.22c0,2.2-.38,4.1-1.12,5.7-.75,1.6-1.87,2.9-3.37,3.9-1.5,1-3.35,1.5-5.55,1.5s-3.92-.5-5.47-1.5c-1.55-1-2.73-2.3-3.52-3.9-.8-1.6-1.2-3.5-1.2-5.7V27.29c0-2.1.4-3.97,1.2-5.62.8-1.65,1.97-2.97,3.52-3.97,1.55-1,3.37-1.5,5.47-1.5s4.05.5,5.55,1.5c1.5,1,2.62,2.32,3.37,3.97.75,1.65,1.12,3.52,1.12,5.62v55.93Z"/>
  <path d="M407.03,83.52c0,2.2-.4,4.12-1.2,5.77-.8,1.65-1.93,2.9-3.37,3.75-1.45.85-3.22,1.27-5.32,1.27s-3.72-.45-5.17-1.35c-1.45-.9-2.58-2.15-3.37-3.75-.8-1.6-1.2-3.5-1.2-5.7V.6h-20.39v79.17c0,4.8.7,9.1,2.1,12.9,1.4,3.8,3.42,7.07,6.07,9.82,2.65,2.75,5.85,4.87,9.6,6.37,3.75,1.5,7.87,2.25,12.37,2.25,6.3,0,11.7-1.27,16.19-3.82,4.5-2.55,8-6.2,10.5-10.95,2.5-4.75,3.75-10.27,3.75-16.57V.6h-20.54v82.92Z"/>
  <polygon points="479.15 68.08 478.4 68.08 476.75 60.73 461.31 .6 437.62 .6 437.62 109.91 456.66 109.91 456.66 43.49 457.41 43.49 458.76 49.78 474.2 109.91 498.2 109.91 498.2 .6 479.15 .6 479.15 68.08"/>
  <path d="M559.27,87.27l8.66-9.41c.39-3.12.58-6.47.58-10.08v-25.04c0-6.7-.73-12.67-2.17-17.92-1.45-5.25-3.65-9.67-6.6-13.27-2.95-3.6-6.67-6.32-11.17-8.17-4.5-1.85-9.8-2.77-15.89-2.77h-23.99v109.31h23.99c2.12,0,4.14-.13,6.08-.36l9.67-10.5v10.86h20.84v-22.64h-10ZM543.1,90.64c-1.85,1.55-4.52,2.32-8.02,2.32h-6.15V17.54h6.15c3.2,0,5.77.67,7.72,2.02s3.37,3.43,4.27,6.22c.9,2.8,1.35,6.35,1.35,10.65v37.64c0,3.9-.43,7.25-1.27,10.05-.85,2.8-2.2,4.97-4.05,6.52Z"/>
  <polygon points="19.87 62.38 37.71 62.38 37.71 45.73 19.87 45.73 19.87 17.69 46.41 17.69 46.41 .6 26.03 .6 -.38 29.28 -.38 109.91 47.31 109.91 47.31 92.67 19.87 92.67 19.87 62.38"/>
</svg>